<svg width="320" height="89" viewBox="0 0 320 89" fill="none" xmlns="http://www.w3.org/2000/svg">
<g opacity="0.55">
<path opacity="0.55" d="M26.586 9.27295C26.947 9.27295 27.067 9.40295 27.067 9.75395V17.6939H31.147C31.498 17.6939 31.628 17.8239 31.628 18.1749V18.8749C31.628 19.2259 31.498 19.3559 31.147 19.3559H25.774C25.423 19.3559 25.283 19.2259 25.283 18.8749V9.75395C25.283 9.40295 25.423 9.27295 25.774 9.27295H26.586Z" fill="#394149"/>
<path opacity="0.55" d="M35.187 12.771C35.187 10.455 36.651 9.06201 39.197 9.06201C41.743 9.06201 43.207 10.455 43.207 12.771V15.859C43.207 18.175 41.733 19.568 39.197 19.568C36.661 19.568 35.187 18.175 35.187 15.859V12.771ZM41.523 12.771C41.523 11.471 40.711 10.771 39.247 10.771C37.783 10.771 36.981 11.483 36.981 12.771V15.879C36.981 17.192 37.781 17.879 39.247 17.879C40.713 17.879 41.523 17.157 41.523 15.879V12.771Z" fill="#394149"/>
<path opacity="0.55" d="M55.147 13.834C55.538 13.834 55.628 13.964 55.628 14.315V16.215C55.6386 16.6637 55.5486 17.1091 55.3647 17.5185C55.1808 17.9279 54.9075 18.2909 54.565 18.581C53.7146 19.2579 52.6426 19.5938 51.558 19.523C48.958 19.523 47.548 18.13 47.548 15.814V12.711C47.548 10.422 49.012 9.02197 51.558 9.02197C53.558 9.02197 54.866 9.81397 55.418 11.398C55.4493 11.4575 55.4663 11.5236 55.4675 11.5909C55.4687 11.6582 55.4542 11.7248 55.425 11.7855C55.3959 11.8461 55.3529 11.8991 55.2996 11.9402C55.2463 11.9813 55.1841 12.0093 55.118 12.022L54.336 12.293C53.995 12.413 53.855 12.343 53.736 11.993C53.5694 11.5654 53.2652 11.2056 52.8713 10.9702C52.4775 10.7347 52.0164 10.6372 51.561 10.693C50.087 10.693 49.285 11.405 49.285 12.693V15.881C49.285 17.194 50.097 17.881 51.561 17.881C53.025 17.881 53.927 17.209 53.927 16.227V15.485H51.748C51.387 15.485 51.257 15.345 51.257 14.994V14.312C51.257 13.961 51.387 13.831 51.748 13.831L55.147 13.834Z" fill="#394149"/>
<path opacity="0.55" d="M59.768 12.771C59.768 10.455 61.232 9.06201 63.778 9.06201C66.324 9.06201 67.788 10.455 67.788 12.771V15.859C67.788 18.175 66.314 19.568 63.778 19.568C61.242 19.568 59.768 18.175 59.768 15.859V12.771ZM66.094 12.771C66.094 11.471 65.282 10.771 63.828 10.771C62.374 10.771 61.552 11.483 61.552 12.771V15.879C61.552 17.192 62.364 17.879 63.828 17.879C65.292 17.879 66.094 17.157 66.094 15.879V12.771Z" fill="#394149"/>
<path opacity="0.55" d="M72.51 9.56395C72.51 9.34295 72.58 9.27295 72.801 9.27295H73.262C73.483 9.27295 73.533 9.34295 73.533 9.56395V19.0639C73.533 19.2849 73.533 19.3549 73.262 19.3549H72.801C72.58 19.3549 72.51 19.2849 72.51 19.0639V9.56395Z" fill="#394149"/>
<path opacity="0.55" d="M82.665 9.27295C83.5004 9.27295 84.3017 9.60482 84.8924 10.1956C85.4831 10.7863 85.815 11.5875 85.815 12.4229C85.815 13.2584 85.4831 14.0596 84.8924 14.6503C84.3017 15.2411 83.5004 15.5729 82.665 15.5729H79.658V19.0729C79.658 19.2939 79.608 19.3639 79.397 19.3639H78.926C78.715 19.3639 78.635 19.2939 78.635 19.0729V9.57295C78.635 9.35195 78.715 9.28195 78.926 9.28195L82.665 9.27295ZM82.575 14.5729C83.1546 14.5729 83.7105 14.3427 84.1204 13.9328C84.5303 13.523 84.7605 12.9671 84.7605 12.3874C84.7605 11.8078 84.5303 11.2519 84.1204 10.8421C83.7105 10.4322 83.1546 10.2019 82.575 10.2019H79.567V14.5729H82.575Z" fill="#394149"/>
<path opacity="0.55" d="M93.642 9.07213C94.4159 8.98674 95.1967 9.15322 95.8685 9.54684C96.5402 9.94047 97.0672 10.5402 97.371 11.2571C97.451 11.4171 97.371 11.5481 97.211 11.6281L96.77 11.8281C96.59 11.8981 96.519 11.8881 96.409 11.6981C96.1818 11.166 95.7913 10.7199 95.2939 10.4244C94.7965 10.1288 94.2179 9.99918 93.642 10.0541C91.948 10.0541 91.026 10.7261 91.026 11.9291C91.0161 12.2968 91.1396 12.6556 91.3735 12.9393C91.6075 13.2231 91.9362 13.4127 92.299 13.4731C92.8381 13.649 93.3971 13.7569 93.963 13.7941C94.6463 13.8312 95.3204 13.9697 95.963 14.2051C96.4569 14.3613 96.882 14.6827 97.1669 15.1154C97.4517 15.5481 97.5789 16.0657 97.527 16.5811C97.527 18.4561 96.164 19.5881 93.657 19.5881C92.8357 19.6811 92.0073 19.4901 91.3096 19.0469C90.6119 18.6037 90.0869 17.9351 89.822 17.1521C89.8043 17.1164 89.7948 17.0772 89.794 17.0374C89.7932 16.9976 89.8012 16.9581 89.8175 16.9217C89.8337 16.8853 89.8578 16.853 89.8879 16.8269C89.9181 16.8009 89.9536 16.7819 89.992 16.7711L90.433 16.6111C90.4677 16.597 90.505 16.5902 90.5425 16.5911C90.58 16.5921 90.6169 16.6009 90.6508 16.6169C90.6847 16.6329 90.715 16.6557 90.7396 16.684C90.7643 16.7122 90.7828 16.7453 90.794 16.7811C91.0189 17.3466 91.418 17.8258 91.9334 18.1494C92.4489 18.473 93.0539 18.6242 93.661 18.5811C95.556 18.5811 96.488 17.9191 96.488 16.5811C96.5056 16.228 96.3974 15.88 96.1826 15.5991C95.9678 15.3183 95.6604 15.1227 95.315 15.0471C94.7962 14.8923 94.2614 14.798 93.721 14.7661L92.638 14.6261C92.3 14.554 91.9661 14.4636 91.638 14.3551C91.3131 14.257 91.0102 14.0971 90.746 13.8841C90.4804 13.6431 90.271 13.3466 90.1328 13.0157C89.9945 12.6847 89.9308 12.3275 89.946 11.9691C90.013 10.2151 91.322 9.07213 93.642 9.07213Z" fill="#394149"/>
<path opacity="0.55" d="M102.935 15.9289C102.978 16.6379 103.289 17.304 103.806 17.7909C104.323 18.2779 105.007 18.5491 105.717 18.5491C106.427 18.5491 107.111 18.2779 107.628 17.7909C108.145 17.304 108.457 16.6379 108.499 15.9289V9.56395C108.499 9.34295 108.569 9.27295 108.79 9.27295H109.252C109.473 9.27295 109.543 9.34295 109.543 9.56395V15.9229C109.543 18.1989 108.2 19.5719 105.724 19.5719C103.248 19.5719 101.905 18.1989 101.905 15.9229V9.56395C101.905 9.34295 101.975 9.27295 102.186 9.27295H102.657C102.868 9.27295 102.938 9.34295 102.938 9.56395L102.935 15.9289Z" fill="#394149"/>
<path opacity="0.55" d="M123.376 9.27295C123.597 9.27295 123.667 9.34295 123.667 9.56395V19.0639C123.667 19.2849 123.597 19.3549 123.376 19.3549H122.955C122.744 19.3549 122.674 19.2849 122.674 19.0639V13.2829C122.674 12.4414 122.731 11.6008 122.844 10.7669H122.784C122.471 11.5294 122.106 12.2695 121.691 12.9819L119.536 16.7819C119.51 16.848 119.464 16.9044 119.405 16.9439C119.346 16.9834 119.276 17.004 119.205 17.0029H118.924C118.852 17.0034 118.781 16.9827 118.72 16.9435C118.66 16.9042 118.612 16.848 118.583 16.7819L116.398 12.9419C116.011 12.2394 115.677 11.5091 115.398 10.7569H115.338C115.44 11.5985 115.494 12.4452 115.498 13.2929V19.0669C115.498 19.2879 115.428 19.3579 115.207 19.3579H114.816C114.595 19.3579 114.525 19.2879 114.525 19.0669V9.56695C114.525 9.34595 114.595 9.27595 114.816 9.27595H115.177C115.259 9.26836 115.342 9.28651 115.414 9.32788C115.485 9.36925 115.542 9.43181 115.577 9.50695L119.086 15.7419L122.575 9.56695C122.685 9.35595 122.745 9.32595 122.966 9.32595L123.376 9.27295Z" fill="#394149"/>
<path opacity="0.55" d="M8.752 17.834V25.082C8.752 25.3605 8.64137 25.6276 8.44446 25.8245C8.24755 26.0214 7.98048 26.132 7.702 26.132C7.42352 26.132 7.15645 26.0214 6.95954 25.8245C6.76262 25.6276 6.652 25.3605 6.652 25.082V17.844C6.94296 18.0566 7.29177 18.1755 7.652 18.185C8.04573 18.1963 8.43146 18.0724 8.745 17.834H8.752ZM17.674 15.734C17.4088 15.734 17.1544 15.8394 16.9669 16.0269C16.7794 16.2144 16.674 16.4688 16.674 16.734V18C16.674 18.2785 16.7846 18.5455 16.9815 18.7425C17.1785 18.9394 17.4455 19.05 17.724 19.05C18.0025 19.05 18.2695 18.9394 18.4665 18.7425C18.6634 18.5455 18.774 18.2785 18.774 18V16.792C18.7823 16.6481 18.7594 16.5041 18.7068 16.3699C18.6542 16.2356 18.5733 16.1144 18.4695 16.0143C18.3656 15.9143 18.2414 15.838 18.1054 15.7904C17.9693 15.7429 17.8245 15.7254 17.681 15.739L17.674 15.734ZM4.381 20.581C4.02106 20.5699 3.67272 20.4511 3.381 20.24V27.508C3.37666 27.6489 3.40066 27.7893 3.4516 27.9208C3.50254 28.0523 3.57937 28.1722 3.67753 28.2735C3.7757 28.3747 3.89319 28.4552 4.02305 28.5102C4.15291 28.5651 4.29249 28.5934 4.4335 28.5934C4.57451 28.5934 4.71409 28.5651 4.84395 28.5102C4.97381 28.4552 5.0913 28.3747 5.18947 28.2735C5.28763 28.1722 5.36446 28.0523 5.4154 27.9208C5.46634 27.7893 5.49035 27.6489 5.486 27.508V20.29C5.15946 20.5012 4.77424 20.6031 4.386 20.581H4.381ZM14.406 13.564C14.2703 13.5568 14.1345 13.5773 14.007 13.6244C13.8795 13.6714 13.7629 13.7439 13.6644 13.8375C13.5658 13.9311 13.4874 14.0438 13.4339 14.1687C13.3803 14.2936 13.3528 14.4281 13.353 14.564V20.15C13.3487 20.2909 13.3727 20.4313 13.4236 20.5628C13.4745 20.6943 13.5514 20.8142 13.6495 20.9155C13.7477 21.0167 13.8652 21.0972 13.9951 21.1522C14.1249 21.2071 14.2645 21.2354 14.4055 21.2354C14.5465 21.2354 14.6861 21.2071 14.8159 21.1522C14.9458 21.0972 15.0633 21.0167 15.1615 20.9155C15.2596 20.8142 15.3365 20.6943 15.3874 20.5628C15.4383 20.4313 15.4623 20.2909 15.458 20.15V14.636C15.4664 14.4914 15.4434 14.3468 15.3904 14.212C15.3374 14.0772 15.2558 13.9556 15.1512 13.8554C15.0466 13.7553 14.9215 13.6791 14.7845 13.632C14.6476 13.585 14.5021 13.5683 14.358 13.583L14.406 13.564ZM11.078 15.709C10.7003 15.7064 10.3325 15.5873 10.025 15.368V22.656C10.0207 22.7969 10.0447 22.9373 10.0956 23.0688C10.1465 23.2003 10.2234 23.3202 10.3215 23.4215C10.4197 23.5227 10.5372 23.6032 10.6671 23.6582C10.7969 23.7131 10.9365 23.7414 11.0775 23.7414C11.2185 23.7414 11.3581 23.7131 11.4879 23.6582C11.6178 23.6032 11.7353 23.5227 11.8335 23.4215C11.9316 23.3202 12.0085 23.2003 12.0594 23.0688C12.1103 22.9373 12.1343 22.7969 12.13 22.656V15.378C11.8127 15.6143 11.4255 15.7379 11.03 15.729L11.078 15.709ZM2.105 21.293V0.932C2.10237 0.683903 2.00196 0.446863 1.82558 0.272361C1.64921 0.0978583 1.41111 -1.39791e-05 1.163 1.49759e-09H0.942C0.693889 -1.39791e-05 0.455791 0.0978583 0.279416 0.272361C0.103041 0.446863 0.00263387 0.683903 0 0.932V21.292C0 21.5418 0.0992463 21.7814 0.275906 21.9581C0.452565 22.1348 0.692166 22.234 0.942 22.234H1.163C1.41283 22.234 1.65244 22.1348 1.82909 21.9581C2.00575 21.7814 2.105 21.5418 2.105 21.292V21.293ZM4.491 19.809H4.271C4.02117 19.809 3.78156 19.7098 3.60491 19.5331C3.42825 19.3564 3.329 19.1168 3.329 18.867V3.358C3.33163 3.1099 3.43204 2.87286 3.60842 2.69836C3.78479 2.52386 4.02289 2.42599 4.271 2.426H4.492C4.74011 2.42599 4.97821 2.52386 5.15458 2.69836C5.33096 2.87286 5.43137 3.1099 5.434 3.358V18.887C5.434 19.1368 5.33475 19.3764 5.15809 19.5531C4.98144 19.7298 4.74183 19.829 4.492 19.829L4.491 19.809ZM7.809 17.423H7.578C7.33082 17.423 7.09376 17.3248 6.91898 17.15C6.74419 16.9752 6.646 16.7382 6.646 16.491V5.764C6.64468 5.64077 6.66781 5.5185 6.71405 5.40427C6.7603 5.29004 6.82874 5.18611 6.91542 5.0985C7.00209 5.0109 7.10528 4.94135 7.21901 4.89389C7.33275 4.84643 7.45476 4.82199 7.578 4.822H7.809C8.0571 4.82463 8.29414 4.92504 8.46864 5.10142C8.64314 5.27779 8.74101 5.51589 8.741 5.764V16.491C8.741 16.7382 8.64281 16.9752 8.46802 17.15C8.29324 17.3248 8.05618 17.423 7.809 17.423ZM11.127 14.967H10.916C10.6679 14.967 10.4298 14.8691 10.2534 14.6946C10.077 14.5201 9.97663 14.2831 9.974 14.035V8.26C9.96607 8.1315 9.98457 8.00274 10.0283 7.88168C10.0721 7.76061 10.1403 7.6498 10.2285 7.55609C10.3168 7.46237 10.4234 7.38775 10.5416 7.33683C10.6598 7.2859 10.7873 7.25976 10.916 7.26H11.137C11.3868 7.26 11.6264 7.35925 11.8031 7.53591C11.9798 7.71256 12.079 7.95217 12.079 8.202V14.016C12.0803 14.1405 12.0569 14.2641 12.0102 14.3796C11.9634 14.495 11.8943 14.6 11.8067 14.6886C11.7191 14.7771 11.6148 14.8474 11.4998 14.8953C11.3849 14.9433 11.2616 14.968 11.137 14.968L11.127 14.967ZM14.455 12.812H14.234C13.9842 12.812 13.7446 12.7128 13.5679 12.5361C13.3912 12.3594 13.292 12.1198 13.292 11.87V10.376C13.2946 10.1279 13.395 9.89086 13.5714 9.71636C13.7478 9.54186 13.9859 9.44399 14.234 9.444H14.455C14.7031 9.44399 14.9412 9.54186 15.1176 9.71636C15.294 9.89086 15.3944 10.1279 15.397 10.376V11.87C15.397 12.1181 15.2991 12.3562 15.1246 12.5326C14.9501 12.709 14.7131 12.8094 14.465 12.812H14.455Z" fill="#394149"/>
</g>
<g opacity="0.55">
<path opacity="0.55" d="M239.954 21.6959C239.358 21.7283 238.768 21.5588 238.28 21.2149C238.076 21.0638 237.912 20.8653 237.802 20.6365C237.692 20.4077 237.639 20.1556 237.648 19.9019V10.6079C237.643 10.5685 237.647 10.5286 237.66 10.491C237.673 10.4535 237.695 10.4194 237.723 10.3914C237.751 10.3633 237.785 10.342 237.822 10.3291C237.86 10.3162 237.9 10.312 237.939 10.3169H239.618C239.808 10.3169 239.899 10.4169 239.899 10.6079V19.1789C239.899 19.5599 240.069 19.7499 240.42 19.7499C240.569 19.7561 240.718 19.7392 240.861 19.6999C241.061 19.6999 241.172 19.7599 241.182 19.9409L241.332 21.1939C241.339 21.2305 241.339 21.2683 241.33 21.3046C241.322 21.3409 241.306 21.375 241.283 21.4045C241.26 21.434 241.231 21.4583 241.198 21.4756C241.165 21.4929 241.128 21.5029 241.091 21.5049C240.724 21.6264 240.341 21.6908 239.954 21.6959Z" fill="#394149"/>
<path opacity="0.55" d="M249.43 20.6231C248.584 21.3222 247.52 21.7047 246.422 21.7047C245.325 21.7047 244.261 21.3222 243.415 20.6231C242.671 19.8722 242.254 18.858 242.254 17.8011C242.254 16.7441 242.671 15.7299 243.415 14.9791C244.263 14.2835 245.326 13.9033 246.422 13.9033C247.519 13.9033 248.582 14.2835 249.43 14.9791C250.157 15.7368 250.562 16.7461 250.562 17.7961C250.562 18.846 250.157 19.8553 249.43 20.6131V20.6231ZM244.999 19.3001C245.392 19.6558 245.903 19.8529 246.432 19.8529C246.962 19.8529 247.473 19.6558 247.866 19.3001C248.221 18.8914 248.417 18.3681 248.417 17.8266C248.417 17.285 248.221 16.7617 247.866 16.3531C247.473 15.9973 246.962 15.8002 246.432 15.8002C245.903 15.8002 245.392 15.9973 244.999 16.3531C244.644 16.7617 244.448 17.285 244.448 17.8266C244.448 18.3681 244.644 18.8914 244.999 19.3001Z" fill="#394149"/>
<path opacity="0.55" d="M259.833 14.157C260.023 14.157 260.114 14.257 260.114 14.448V21.636C260.131 22.1211 260.041 22.6039 259.848 23.0495C259.656 23.4951 259.366 23.8922 259.001 24.212C258.19 24.9022 257.148 25.2595 256.084 25.212C255.123 25.2457 254.174 24.9832 253.367 24.46C253.023 24.2342 252.729 23.9402 252.503 23.5962C252.277 23.2522 252.124 22.8654 252.054 22.46C252.054 22.26 252.054 22.169 252.325 22.169H254.009C254.081 22.1714 254.15 22.1945 254.209 22.2355C254.267 22.2765 254.313 22.3336 254.34 22.4C254.449 22.7046 254.667 22.9582 254.952 23.112C255.299 23.2911 255.685 23.3808 256.075 23.373C256.31 23.3858 256.546 23.3517 256.768 23.2725C256.99 23.1934 257.194 23.0708 257.368 22.912C257.527 22.7459 257.651 22.5492 257.732 22.3338C257.813 22.1184 257.849 21.8888 257.839 21.659V21.027C257.235 21.4683 256.501 21.6953 255.753 21.672C255.229 21.691 254.707 21.604 254.218 21.4162C253.729 21.2283 253.282 20.9436 252.906 20.579C252.183 19.8312 251.779 18.8319 251.779 17.792C251.779 16.752 252.183 15.7527 252.906 15.005C253.285 14.6445 253.732 14.3634 254.221 14.1783C254.71 13.9932 255.231 13.9077 255.753 13.927C256.523 13.9068 257.276 14.151 257.888 14.619V14.459C257.883 14.4205 257.887 14.3815 257.9 14.3448C257.912 14.3081 257.933 14.2746 257.959 14.2468C257.986 14.2189 258.019 14.1974 258.055 14.1837C258.092 14.1701 258.13 14.1647 258.169 14.168L259.833 14.157ZM255.943 19.891C256.201 19.899 256.458 19.8502 256.695 19.7481C256.932 19.646 257.144 19.493 257.316 19.3C257.649 18.8696 257.83 18.3407 257.83 17.7965C257.83 17.2522 257.649 16.7233 257.316 16.293C257.145 16.1025 256.934 15.9519 256.699 15.8515C256.463 15.7511 256.209 15.7035 255.953 15.712C255.692 15.7035 255.432 15.7519 255.191 15.854C254.951 15.956 254.735 16.1093 254.56 16.303C254.192 16.7138 253.998 17.2517 254.019 17.803C254.001 18.3502 254.191 18.884 254.55 19.297C254.726 19.4899 254.942 19.6426 255.182 19.7446C255.422 19.8466 255.682 19.8955 255.943 19.888V19.891Z" fill="#394149"/>
<path opacity="0.55" d="M268.766 20.6231C267.918 21.3186 266.855 21.6988 265.759 21.6988C264.662 21.6988 263.599 21.3186 262.751 20.6231C262.024 19.8636 261.618 18.8526 261.618 17.8011C261.618 16.7495 262.024 15.7385 262.751 14.9791C263.6 14.2853 264.662 13.9062 265.759 13.9062C266.855 13.9062 267.917 14.2853 268.766 14.9791C269.493 15.7368 269.898 16.7461 269.898 17.7961C269.898 18.846 269.493 19.8553 268.766 20.6131V20.6231ZM264.325 19.3001C264.716 19.6643 265.23 19.8668 265.764 19.8668C266.297 19.8668 266.812 19.6643 267.202 19.3001C267.552 18.8886 267.743 18.3664 267.743 17.8266C267.743 17.2867 267.552 16.7645 267.202 16.3531C266.812 15.9889 266.297 15.7863 265.764 15.7863C265.23 15.7863 264.716 15.9889 264.325 16.3531C263.976 16.7645 263.784 17.2867 263.784 17.8266C263.784 18.3664 263.976 18.8886 264.325 19.3001Z" fill="#394149"/>
<path opacity="0.55" d="M273.517 12.4541C273.252 12.686 272.912 12.8139 272.56 12.8139C272.207 12.8139 271.867 12.686 271.602 12.4541C271.482 12.3407 271.386 12.204 271.321 12.0523C271.256 11.9006 271.222 11.7372 271.222 11.5721C271.222 11.4069 271.256 11.2435 271.321 11.0918C271.386 10.9402 271.482 10.8035 271.602 10.6901C271.87 10.4639 272.209 10.3398 272.56 10.3398C272.91 10.3398 273.249 10.4639 273.517 10.6901C273.637 10.8035 273.733 10.9402 273.798 11.0918C273.864 11.2435 273.897 11.4069 273.897 11.5721C273.897 11.7372 273.864 11.9006 273.798 12.0523C273.733 12.204 273.637 12.3407 273.517 12.4541ZM273.728 21.6971C273.132 21.7261 272.544 21.5569 272.054 21.2161C271.853 21.0627 271.692 20.8635 271.584 20.6351C271.475 20.4067 271.423 20.1557 271.432 19.9031V14.4491C271.427 14.4097 271.431 14.3697 271.444 14.3322C271.457 14.2947 271.478 14.2606 271.507 14.2325C271.535 14.2045 271.569 14.1832 271.606 14.1703C271.644 14.1574 271.684 14.1532 271.723 14.1581H273.407C273.597 14.1581 273.688 14.2581 273.688 14.4491V19.1811C273.688 19.5617 273.858 19.7521 274.199 19.7521C274.351 19.7576 274.503 19.7407 274.65 19.7021C274.85 19.7021 274.961 19.7621 274.971 19.9431L275.121 21.1961C275.128 21.2327 275.128 21.2704 275.119 21.3068C275.111 21.3431 275.095 21.3772 275.072 21.4067C275.049 21.4362 275.02 21.4604 274.987 21.4778C274.954 21.4951 274.917 21.5051 274.88 21.5071C274.508 21.6295 274.119 21.6936 273.727 21.6971H273.728Z" fill="#394149"/>
<path opacity="0.55" d="M281.312 13.9169C281.838 13.8962 282.363 13.9814 282.855 14.1674C283.348 14.3535 283.798 14.6366 284.179 14.9999C284.887 15.7605 285.28 16.7609 285.28 17.7999C285.28 18.8389 284.887 19.8394 284.179 20.5999C283.8 20.967 283.351 21.2535 282.858 21.4418C282.365 21.6302 281.839 21.7167 281.312 21.6959C280.56 21.7136 279.822 21.4846 279.212 21.0439V24.6629C279.212 24.8529 279.112 24.9439 278.921 24.9439H277.246C277.208 24.9511 277.168 24.9488 277.131 24.9372C277.093 24.9256 277.059 24.9051 277.032 24.8774C277.004 24.8497 276.983 24.8158 276.972 24.7784C276.96 24.741 276.958 24.7014 276.965 24.6629V16.4429C276.977 16.3626 276.97 16.2806 276.944 16.2036C276.918 16.1265 276.875 16.0564 276.818 15.999C276.76 15.9416 276.69 15.8984 276.613 15.8729C276.536 15.8473 276.454 15.8402 276.374 15.8519H276.043C275.822 15.8519 275.712 15.7716 275.712 15.6109V14.4279C275.707 14.3547 275.727 14.2818 275.769 14.2216C275.811 14.1613 275.872 14.1173 275.943 14.0969C276.29 13.9711 276.657 13.91 277.026 13.9169C277.394 13.8843 277.762 13.962 278.086 14.1402C278.409 14.3183 278.671 14.5887 278.84 14.9169C279.163 14.5908 279.549 14.3339 279.975 14.162C280.401 13.99 280.857 13.9067 281.316 13.9169H281.312ZM279.752 19.2999C279.931 19.4867 280.145 19.6354 280.383 19.737C280.621 19.8385 280.877 19.8909 281.135 19.8909C281.394 19.8909 281.65 19.8385 281.888 19.737C282.125 19.6354 282.34 19.4867 282.519 19.2999C282.895 18.8799 283.093 18.3295 283.07 17.7659C283.096 17.2019 282.898 16.6503 282.519 16.2319C282.34 16.0451 282.125 15.8965 281.888 15.7949C281.65 15.6934 281.394 15.641 281.135 15.641C280.877 15.641 280.621 15.6934 280.383 15.7949C280.145 15.8965 279.931 16.0451 279.752 16.2319C279.387 16.6577 279.198 17.2058 279.221 17.7659C279.201 18.3256 279.39 18.8727 279.752 19.2999Z" fill="#394149"/>
<path opacity="0.55" d="M290.018 21.6958C289.117 21.7325 288.224 21.5164 287.439 21.0718C287.124 20.8823 286.857 20.6245 286.655 20.3174C286.454 20.0103 286.324 19.6618 286.276 19.2978C286.276 19.0978 286.346 18.9978 286.567 18.9978H288.039C288.109 19.0005 288.177 19.0226 288.236 19.0616C288.294 19.1006 288.341 19.155 288.37 19.2188C288.581 19.7598 289.132 20.0308 290.014 20.0308C290.322 20.045 290.628 19.9832 290.906 19.8508C291.002 19.8075 291.084 19.739 291.144 19.6525C291.205 19.566 291.24 19.4648 291.247 19.3598C291.247 19.0988 291.087 18.9188 290.766 18.7988C290.385 18.672 289.992 18.5878 289.593 18.5478C289.121 18.494 288.654 18.4101 288.193 18.2968C287.744 18.195 287.335 17.961 287.02 17.6248C286.834 17.3964 286.698 17.1323 286.618 16.8488C286.539 16.5653 286.519 16.2686 286.56 15.9771C286.6 15.6855 286.7 15.4054 286.853 15.1542C287.007 14.903 287.21 14.686 287.451 14.5168C288.174 14.0564 289.021 13.832 289.877 13.8748C290.705 13.8492 291.523 14.056 292.239 14.4718C292.528 14.636 292.776 14.8624 292.967 15.1347C293.157 15.4069 293.284 15.7182 293.339 16.0458C293.339 16.2458 293.249 16.3458 293.068 16.3458H291.592C291.53 16.3493 291.468 16.3341 291.414 16.302C291.361 16.2699 291.318 16.2224 291.292 16.1658C291.193 15.9284 291.006 15.7382 290.771 15.6348C290.505 15.496 290.209 15.4272 289.909 15.4348C289.615 15.4187 289.322 15.4772 289.057 15.6048C288.963 15.6406 288.883 15.7037 288.826 15.7859C288.768 15.8681 288.737 15.9656 288.736 16.0658C288.743 16.2027 288.793 16.334 288.879 16.4404C288.966 16.5467 289.084 16.6225 289.217 16.6568C289.602 16.8017 290.002 16.9023 290.41 16.9568C290.879 17.0187 291.344 17.1058 291.803 17.2178C292.252 17.3196 292.661 17.5536 292.976 17.8898C293.144 18.075 293.274 18.2917 293.358 18.5273C293.443 18.7629 293.48 19.0129 293.467 19.2628C293.476 19.6093 293.395 19.9523 293.232 20.258C293.068 20.5638 292.828 20.8218 292.535 21.0068C291.785 21.4869 290.908 21.7272 290.018 21.6958Z" fill="#394149"/>
<path opacity="0.55" d="M304.06 21.1947C304.067 21.2301 304.067 21.2664 304.06 21.3017C304.052 21.3379 304.036 21.3719 304.014 21.4017C303.993 21.4309 303.966 21.4554 303.935 21.4737C303.904 21.4919 303.87 21.5038 303.835 21.5087C303.469 21.6281 303.087 21.6922 302.702 21.6987C302.322 21.7373 301.938 21.6773 301.588 21.5246C301.238 21.3719 300.933 21.1315 300.702 20.8267C299.994 21.4354 299.078 21.7477 298.146 21.6987C297.713 21.7187 297.281 21.6478 296.877 21.4908C296.473 21.3337 296.106 21.0939 295.8 20.7867C295.495 20.4657 295.258 20.0864 295.104 19.6716C294.949 19.2567 294.88 18.815 294.9 18.3727V14.4527C294.9 14.2627 294.99 14.1617 295.181 14.1617H296.86C297.05 14.1617 297.141 14.2617 297.141 14.4527V18.0717C297.123 18.5226 297.277 18.9636 297.572 19.3047C297.719 19.4613 297.898 19.5843 298.097 19.6656C298.296 19.7468 298.51 19.7844 298.725 19.7757C298.944 19.7849 299.163 19.7507 299.369 19.675C299.575 19.5993 299.764 19.4837 299.925 19.3347C300.078 19.1772 300.196 18.99 300.274 18.7849C300.351 18.5797 300.386 18.3608 300.376 18.1417V14.4477C300.376 14.2577 300.466 14.1567 300.657 14.1567H302.357C302.547 14.1567 302.638 14.2567 302.638 14.4477V19.1727C302.638 19.5637 302.808 19.7537 303.138 19.7537C303.293 19.7598 303.449 19.743 303.599 19.7037C303.637 19.6931 303.677 19.6911 303.716 19.698C303.754 19.705 303.791 19.7206 303.823 19.7437C303.855 19.767 303.881 19.797 303.9 19.8317C303.918 19.8665 303.928 19.9047 303.93 19.9437L304.06 21.1947Z" fill="#394149"/>
<path opacity="0.55" d="M319.992 21.195C320 21.2312 320 21.2688 319.992 21.305C319.984 21.3411 319.969 21.3752 319.947 21.405C319.925 21.4349 319.897 21.4596 319.864 21.477C319.832 21.4945 319.796 21.5044 319.759 21.506C319.386 21.6271 318.998 21.6911 318.606 21.696C318.01 21.7268 317.421 21.5575 316.932 21.215C316.721 21.0683 316.549 20.8717 316.432 20.6426C316.314 20.4136 316.255 20.1592 316.26 19.902V17.546C316.281 17.0965 316.131 16.6557 315.839 16.313C315.698 16.1563 315.525 16.0328 315.33 15.9513C315.136 15.8699 314.926 15.8325 314.716 15.842C314.527 15.8351 314.339 15.8713 314.165 15.9476C313.992 16.024 313.838 16.1387 313.716 16.283C313.451 16.6189 313.316 17.0388 313.335 17.466V21.166C313.335 21.356 313.245 21.457 313.054 21.457H311.36C311.321 21.4619 311.281 21.4578 311.243 21.445C311.205 21.4322 311.171 21.411 311.143 21.383C311.115 21.3548 311.094 21.3206 311.081 21.283C311.068 21.2455 311.064 21.2054 311.069 21.166V17.546C311.091 17.1014 310.952 16.6638 310.678 16.313C310.556 16.1661 310.403 16.0478 310.23 15.9664C310.058 15.885 309.869 15.8426 309.678 15.842C309.474 15.8342 309.271 15.8694 309.081 15.9454C308.891 16.0213 308.72 16.1364 308.578 16.283C308.291 16.6083 308.144 17.0331 308.167 17.466V21.166C308.172 21.2054 308.168 21.2455 308.155 21.283C308.142 21.3205 308.121 21.3545 308.093 21.3826C308.065 21.4106 308.031 21.432 307.994 21.445C307.956 21.4578 307.916 21.4619 307.877 21.457H306.243C306.053 21.457 305.962 21.357 305.962 21.166V16.443C305.974 16.3627 305.967 16.2807 305.941 16.2036C305.915 16.1266 305.872 16.0565 305.815 15.999C305.758 15.9416 305.688 15.8984 305.61 15.8729C305.533 15.8474 305.451 15.8402 305.371 15.852H305.04C304.819 15.852 304.709 15.7717 304.709 15.611V14.428C304.704 14.3548 304.724 14.282 304.766 14.2218C304.808 14.1616 304.87 14.1176 304.94 14.097C305.287 13.9711 305.654 13.9101 306.023 13.917C306.377 13.8868 306.732 13.9574 307.048 14.1205C307.364 14.2837 307.627 14.5327 307.807 14.839C308.145 14.5185 308.546 14.2712 308.984 14.1126C309.422 13.954 309.888 13.8874 310.353 13.917C310.805 13.8949 311.255 13.9796 311.668 14.1643C312.081 14.349 312.444 14.6285 312.729 14.98C313.061 14.6193 313.469 14.3369 313.923 14.1531C314.377 13.9692 314.867 13.8886 315.356 13.917C315.794 13.8966 316.231 13.9671 316.64 14.1241C317.048 14.2811 317.42 14.5211 317.732 14.829C318.036 15.1505 318.272 15.5303 318.426 15.9456C318.579 16.3609 318.646 16.8029 318.624 17.245V19.18C318.624 19.561 318.794 19.751 319.115 19.751C319.27 19.7583 319.426 19.7415 319.576 19.701C319.783 19.701 319.894 19.7814 319.907 19.942L319.992 21.195Z" fill="#394149"/>
<path opacity="0.55" d="M202.441 12.8539C203.181 9.88119 204.894 7.24139 207.307 5.35482C209.72 3.46824 212.696 2.44336 215.759 2.44336C218.822 2.44336 221.798 3.46824 224.211 5.35482C226.625 7.24139 228.337 9.88119 229.077 12.8539H227.877C225.848 12.8239 223.86 13.4303 222.193 14.5879C222.097 14.6574 221.997 14.7208 221.893 14.7779H221.753C221.649 14.7208 221.549 14.6574 221.453 14.5879C219.771 13.4576 217.79 12.854 215.764 12.854C213.738 12.854 211.757 13.4576 210.075 14.5879C209.979 14.6574 209.879 14.7208 209.775 14.7779H209.63C209.526 14.7208 209.426 14.6574 209.33 14.5879C207.662 13.4299 205.674 12.8235 203.644 12.8539H202.441ZM225.709 19.1439C226.326 18.663 227.092 18.4113 227.874 18.4319H229.488V15.2099H227.874C226.494 15.1925 225.146 15.6215 224.03 16.4329C223.403 16.8954 222.644 17.1449 221.865 17.1449C221.085 17.1449 220.326 16.8954 219.699 16.4329C218.556 15.6374 217.197 15.2109 215.805 15.2109C214.412 15.2109 213.053 15.6374 211.91 16.4329C211.283 16.8954 210.524 17.1449 209.745 17.1449C208.965 17.1449 208.206 16.8954 207.579 16.4329C206.45 15.612 205.084 15.1825 203.689 15.2099H202.03V18.4279H203.644C204.426 18.4073 205.192 18.659 205.809 19.1399C206.95 19.9355 208.308 20.3621 209.699 20.3621C211.09 20.3621 212.447 19.9355 213.588 19.1399C214.206 18.6606 214.971 18.4091 215.753 18.4279C216.536 18.4056 217.301 18.6574 217.918 19.1399C219.061 19.9354 220.42 20.3619 221.813 20.3619C223.205 20.3619 224.564 19.9354 225.707 19.1399L225.709 19.1439ZM225.709 24.8979C226.326 24.417 227.092 24.1653 227.874 24.1859H229.488V20.9649H227.874C226.494 20.9475 225.146 21.3765 224.03 22.1879C223.403 22.6504 222.644 22.8999 221.865 22.8999C221.085 22.8999 220.326 22.6504 219.699 22.1879C218.556 21.3924 217.197 20.9659 215.805 20.9659C214.412 20.9659 213.053 21.3924 211.91 22.1879C211.283 22.6504 210.524 22.8999 209.745 22.8999C208.965 22.8999 208.206 22.6504 207.579 22.1879C206.45 21.367 205.084 20.9375 203.689 20.9649H202.03V24.1829H203.644C204.426 24.1623 205.192 24.414 205.809 24.8949C206.95 25.6905 208.308 26.1171 209.699 26.1171C211.09 26.1171 212.447 25.6905 213.588 24.8949C214.206 24.4156 214.971 24.1641 215.753 24.1829C216.536 24.1606 217.301 24.4124 217.918 24.8949C219.061 25.6904 220.42 26.1169 221.813 26.1169C223.205 26.1169 224.564 25.6904 225.707 24.8949L225.709 24.8979Z" fill="#394149"/>
</g>
<g opacity="0.55">
<path opacity="0.55" d="M135.448 67.8451H138.455V80.0051H135.448V67.8451ZM139.648 75.4141C139.648 72.4071 141.493 70.6141 144.34 70.6141C147.187 70.6141 149.032 72.4081 149.032 75.4141C149.032 78.4201 147.232 80.2261 144.34 80.2261C141.448 80.2261 139.648 78.4731 139.648 75.4141ZM146.014 75.4141C146.014 73.7601 145.362 72.7871 144.34 72.7871C143.318 72.7871 142.676 73.7871 142.676 75.4141C142.676 77.0411 143.308 78.0201 144.34 78.0201C145.372 78.0201 146.014 77.0981 146.014 75.4201V75.4141ZM150.164 80.5971H153.051C153.189 80.902 153.421 81.1542 153.714 81.3163C154.006 81.4785 154.343 81.5419 154.675 81.4971C155.818 81.4971 156.419 80.8751 156.419 79.9731V78.2911H156.359C156.119 78.8073 155.731 79.2399 155.243 79.5329C154.755 79.826 154.19 79.9661 153.622 79.9351C151.422 79.9351 149.973 78.2611 149.973 75.3841C149.973 72.5071 151.356 70.6921 153.662 70.6921C154.248 70.6691 154.827 70.8257 155.322 71.141C155.816 71.4562 156.203 71.9151 156.429 72.4561V70.7821H159.436V79.9051C159.436 82.1051 157.501 83.4641 154.644 83.4641C151.987 83.4641 150.333 82.2711 150.163 80.6071L150.164 80.5971ZM156.43 75.4041C156.43 73.9401 155.758 73.0181 154.696 73.0181C153.634 73.0181 152.982 73.9301 152.982 75.4041C152.982 76.8781 153.624 77.7101 154.696 77.7101C155.768 77.7101 156.43 76.8981 156.43 75.4101V75.4041ZM160.57 75.4041C160.57 72.3971 162.415 70.6041 165.262 70.6041C165.899 70.56 166.538 70.6547 167.135 70.8818C167.733 71.1088 168.273 71.4627 168.72 71.9191C169.167 72.3755 169.509 72.9235 169.724 73.5252C169.938 74.1269 170.02 74.768 169.962 75.4041C169.962 78.4111 168.162 80.2161 165.262 80.2161C162.362 80.2161 160.57 78.4721 160.57 75.4161V75.4041ZM166.936 75.4041C166.936 73.7501 166.284 72.7771 165.262 72.7771C164.24 72.7771 163.648 73.7901 163.648 75.4241C163.648 77.0581 164.28 78.0301 165.302 78.0301C166.324 78.0301 166.936 77.0981 166.936 75.4241V75.4041ZM171.106 68.5971C171.098 68.2934 171.181 67.9943 171.343 67.7375C171.505 67.4808 171.74 67.278 172.018 67.1549C172.296 67.0319 172.604 66.9941 172.903 67.0463C173.202 67.0985 173.479 67.2384 173.699 67.4482C173.919 67.658 174.071 67.9284 174.137 68.2249C174.203 68.5215 174.179 68.8309 174.069 69.114C173.959 69.3971 173.767 69.6411 173.518 69.8151C173.269 69.989 172.974 70.0851 172.67 70.0911C172.469 70.1049 172.267 70.0769 172.077 70.0089C171.887 69.9409 171.713 69.8344 171.566 69.696C171.419 69.5575 171.302 69.3903 171.223 69.2046C171.144 69.019 171.104 68.8189 171.106 68.6171V68.5971ZM171.106 70.8021H174.113V80.0021H171.106V70.8021ZM185.03 75.4021C185.03 78.4091 183.697 80.1241 181.411 80.1241C180.825 80.1621 180.242 80.0195 179.74 79.7155C179.238 79.4115 178.842 78.9607 178.604 78.4241H178.544V82.9551H175.537V70.7821H178.544V72.4261H178.604C178.83 71.8799 179.219 71.4166 179.717 71.0992C180.216 70.7818 180.8 70.6257 181.391 70.6521C183.697 70.6921 185.07 72.4161 185.07 75.4241L185.03 75.4021ZM182.023 75.4021C182.023 73.9381 181.351 73.0021 180.299 73.0021C179.247 73.0021 178.575 73.9441 178.565 75.4021C178.555 76.8601 179.247 77.7881 180.299 77.7881C181.351 77.7881 182.023 76.8761 182.023 75.4221V75.4021ZM190.193 70.5901C192.693 70.5901 194.203 71.7731 194.273 73.6681H191.537C191.537 73.0161 190.996 72.6051 190.164 72.6051C189.332 72.6051 188.964 72.9261 188.964 73.3971C188.964 73.8681 189.295 74.0191 189.964 74.1591L191.889 74.5501C193.724 74.9411 194.505 75.6831 194.505 77.0761C194.505 78.9761 192.771 80.2041 190.214 80.2041C187.657 80.2041 185.984 78.9811 185.853 77.1041H188.753C188.843 77.7861 189.385 78.1871 190.267 78.1871C191.149 78.1871 191.55 77.8961 191.55 77.4151C191.55 76.9341 191.269 76.8341 190.55 76.6831L188.816 76.3121C187.022 75.9411 186.079 74.9891 186.079 73.5851C186.099 71.7851 187.713 70.6081 190.199 70.6081L190.193 70.5901ZM204.539 79.9831H201.639V78.2731H201.578C201.419 78.8488 201.068 79.3528 200.582 79.7011C200.097 80.0495 199.507 80.2214 198.911 80.1881C198.454 80.2137 197.997 80.141 197.571 79.975C197.144 79.8089 196.759 79.5534 196.439 79.2255C196.12 78.8977 195.875 78.5052 195.72 78.0746C195.566 77.6439 195.505 77.1851 195.543 76.7291V70.7821H198.55V76.0351C198.55 77.1281 199.111 77.7091 200.044 77.7091C200.263 77.7096 200.479 77.6633 200.678 77.5734C200.877 77.4835 201.055 77.352 201.199 77.1878C201.344 77.0236 201.451 76.8305 201.515 76.6213C201.578 76.4122 201.596 76.1919 201.568 75.9751V70.7821H204.578L204.539 79.9831ZM205.993 70.7831H208.9V72.5571H208.96C209.12 71.989 209.463 71.4898 209.937 71.1378C210.411 70.7859 210.988 70.601 211.578 70.6121C212.177 70.565 212.772 70.7443 213.245 71.1146C213.719 71.4849 214.036 72.0193 214.134 72.6121H214.194C214.377 72.0126 214.754 71.4908 215.266 71.1288C215.777 70.7668 216.395 70.5851 217.021 70.6121C217.43 70.5984 217.837 70.6709 218.216 70.8249C218.596 70.9789 218.938 71.2109 219.222 71.5059C219.505 71.801 219.724 72.1523 219.863 72.5372C220.001 72.9222 220.058 73.332 220.028 73.7401V80.0061H217.021V74.5421C217.021 73.5421 216.57 73.0781 215.728 73.0781C215.54 73.0764 215.354 73.115 215.182 73.1913C215.011 73.2677 214.858 73.38 214.733 73.5207C214.609 73.6614 214.516 73.8272 214.461 74.0069C214.406 74.1865 214.39 74.3759 214.415 74.5621V80.0051H211.558V74.5051C211.558 73.5831 211.107 73.0811 210.285 73.0811C210.095 73.0811 209.908 73.1212 209.735 73.1989C209.562 73.2765 209.407 73.39 209.282 73.5317C209.156 73.6734 209.061 73.8402 209.004 74.0211C208.948 74.202 208.93 74.3929 208.952 74.5811V80.0041H205.945L205.993 70.7831Z" fill="#394149"/>
<path opacity="0.55" d="M124.062 69.2029C123.553 68.0366 122.88 66.9495 122.062 65.9749C120.85 64.4934 119.338 63.2852 117.626 62.4298C115.913 61.5744 114.039 61.0911 112.127 61.0117C110.214 60.9323 108.306 61.2586 106.529 61.9691C104.752 62.6796 103.145 63.7583 101.814 65.1342C100.483 66.5101 99.4589 68.1521 98.8081 69.9523C98.1573 71.7524 97.8948 73.6699 98.038 75.5787C98.1812 77.4875 98.7268 79.3444 99.6389 81.0272C100.551 82.7101 101.809 84.1809 103.33 85.3429C104.307 86.1028 105.388 86.7206 106.538 87.1779C108.151 87.8381 109.878 88.1777 111.621 88.1779C115.219 88.1697 118.667 86.7356 121.209 84.1899C123.751 81.6443 125.181 78.1946 125.184 74.5969C125.187 72.7409 124.804 70.9046 124.061 69.2039L124.062 69.2029ZM111.611 63.7629C113.176 63.7619 114.723 64.1032 116.142 64.7629C115.796 64.9125 115.432 65.0171 115.059 65.0739C113.833 65.2514 112.696 65.8208 111.82 66.697C110.944 67.5733 110.375 68.7094 110.197 69.9359C110.119 70.6238 109.806 71.2639 109.311 71.748C108.816 72.2321 108.17 72.5305 107.48 72.5929C106.254 72.7701 105.117 73.3393 104.241 74.2154C103.364 75.0914 102.795 76.2275 102.617 77.4539C102.557 78.1078 102.278 78.7223 101.825 79.1979C101.044 77.5472 100.693 75.7258 100.805 73.9032C100.917 72.0805 101.488 70.3157 102.465 68.773C103.443 67.2304 104.794 65.96 106.394 65.08C107.994 64.2 109.791 63.739 111.617 63.7399L111.611 63.7629ZM103.317 81.6139C103.437 81.5039 103.558 81.4029 103.678 81.2829C104.57 80.4182 105.142 79.2768 105.302 78.0449C105.367 77.3523 105.676 76.7053 106.174 76.2199C106.653 75.721 107.299 75.4144 107.988 75.3579C109.214 75.1804 110.351 74.611 111.227 73.7347C112.103 72.8585 112.673 71.7223 112.85 70.4959C112.893 69.7715 113.204 69.089 113.722 68.5809C114.213 68.0914 114.865 67.796 115.557 67.7489C116.684 67.5936 117.734 67.0926 118.564 66.3149C119.509 67.0989 120.31 68.0421 120.93 69.1019C120.892 69.1532 120.848 69.2002 120.8 69.2419C120.322 69.7452 119.677 70.0584 118.986 70.1239C117.758 70.2983 116.62 70.8667 115.744 71.7435C114.867 72.6203 114.298 73.7582 114.124 74.9859C114.053 75.6766 113.746 76.3216 113.254 76.8114C112.762 77.3012 112.115 77.6056 111.424 77.6729C110.194 77.849 109.054 78.4173 108.172 79.2932C107.291 80.1691 106.716 81.306 106.532 82.5349C106.478 83.0247 106.31 83.4949 106.041 83.9079C105.012 83.2959 104.091 82.5189 103.314 81.6079L103.317 81.6139ZM111.608 85.4839C110.591 85.4849 109.579 85.3432 108.601 85.0629C108.935 84.4409 109.153 83.7631 109.243 83.0629C109.313 82.3742 109.619 81.7308 110.109 81.2414C110.598 80.7519 111.241 80.4462 111.93 80.3759C113.158 80.2004 114.297 79.6319 115.175 78.7554C116.053 77.879 116.624 76.7418 116.802 75.5139C116.872 74.8252 117.178 74.1818 117.668 73.6923C118.157 73.2029 118.8 72.8972 119.489 72.8269C120.413 72.7073 121.294 72.3641 122.055 71.8269C122.476 73.4281 122.525 75.1045 122.198 76.7275C121.871 78.3506 121.177 79.8773 120.169 81.1907C119.161 82.5041 117.866 83.5692 116.382 84.3045C114.899 85.0398 113.267 85.4258 111.611 85.4329L111.608 85.4839Z" fill="#394149"/>
</g>
</svg>
