<svg width="13" height="7" viewBox="0 0 13 7" fill="none" xmlns="http://www.w3.org/2000/svg">
<path d="M8.84497 2.41089H0.611973C0.525247 2.41089 0.442074 2.44534 0.380749 2.50666C0.319425 2.56799 0.284973 2.65116 0.284973 2.73789L0.284973 4.26489C0.284973 4.35161 0.319425 4.43478 0.380749 4.49611C0.442074 4.55743 0.525247 4.59189 0.611973 4.59189H8.84497V5.84789C8.84475 5.9774 8.88299 6.10405 8.95484 6.21181C9.02669 6.31956 9.12891 6.40356 9.24855 6.45315C9.36819 6.50274 9.49986 6.51569 9.62687 6.49036C9.75387 6.46504 9.87051 6.40257 9.96197 6.31089L12.309 3.96389C12.3697 3.90315 12.4179 3.83105 12.4508 3.75169C12.4837 3.67234 12.5006 3.58728 12.5006 3.50138C12.5006 3.41549 12.4837 3.33043 12.4508 3.25108C12.4179 3.17172 12.3697 3.09962 12.309 3.03889L9.96197 0.690885C9.87051 0.599198 9.75387 0.536733 9.62687 0.511407C9.49986 0.48608 9.36819 0.499033 9.24855 0.548624C9.12891 0.598215 9.02669 0.68221 8.95484 0.789963C8.88299 0.897717 8.84475 1.02438 8.84497 1.15389V2.41089Z" fill="#06C167"/>
</svg>
