<svg width="101" height="21" viewBox="0 0 101 21" fill="none" xmlns="http://www.w3.org/2000/svg">
<path d="M10.7 12.0653L11.266 8.37732H7.727V5.98332C7.70214 5.70748 7.73973 5.42959 7.83698 5.17027C7.93423 4.91095 8.08864 4.67687 8.28875 4.4854C8.48886 4.29394 8.72953 4.15001 8.99289 4.0643C9.25625 3.97859 9.53553 3.9533 9.81 3.99032H11.419V0.850318C10.473 0.69759 9.51713 0.614367 8.559 0.601318C5.644 0.601318 3.739 2.36832 3.739 5.56532V8.37632H0.5V12.0643H3.74V20.9813H7.727V12.0653H10.7Z" fill="#1D1D1F"/>
<path d="M45.423 4.99129C44.5183 4.99129 43.634 5.25955 42.8818 5.76214C42.1296 6.26474 41.5434 6.9791 41.1972 7.81489C40.851 8.65068 40.7604 9.57036 40.9369 10.4576C41.1134 11.3449 41.549 12.1599 42.1887 12.7996C42.8284 13.4393 43.6434 13.8749 44.5307 14.0514C45.4179 14.2279 46.3376 14.1373 47.1734 13.7911C48.0092 13.4449 48.7235 12.8587 49.2261 12.1065C49.7287 11.3543 49.997 10.4699 49.997 9.56529C49.9981 8.96432 49.8805 8.36907 49.651 7.81365C49.4215 7.25823 49.0846 6.75358 48.6597 6.32863C48.2347 5.90369 47.7301 5.56681 47.1746 5.33732C46.6192 5.10783 46.024 4.99024 45.423 4.99129ZM45.423 12.5383C44.835 12.5383 44.2602 12.3639 43.7713 12.0372C43.2824 11.7106 42.9013 11.2462 42.6763 10.703C42.4513 10.1598 42.3924 9.56199 42.5071 8.98528C42.6218 8.40858 42.905 7.87884 43.3208 7.46306C43.7366 7.04728 44.2663 6.76413 44.843 6.64941C45.4197 6.5347 46.0175 6.59358 46.5607 6.81859C47.104 7.04361 47.5683 7.42467 47.895 7.91358C48.2216 8.40248 48.396 8.97728 48.396 9.56529C48.3944 10.3533 48.0807 11.1086 47.5235 11.6658C46.9663 12.223 46.211 12.5367 45.423 12.5383V12.5383ZM51.25 4.80429C51.25 5.01532 51.1874 5.22161 51.0702 5.39708C50.9529 5.57255 50.7863 5.70931 50.5913 5.79007C50.3964 5.87083 50.1818 5.89196 49.9748 5.85079C49.7679 5.80962 49.5777 5.70799 49.4285 5.55877C49.2793 5.40955 49.1777 5.21943 49.1365 5.01245C49.0953 4.80547 49.1165 4.59093 49.1972 4.39596C49.278 4.201 49.4147 4.03435 49.5902 3.91711C49.7657 3.79987 49.972 3.73729 50.183 3.73729C50.3233 3.73676 50.4623 3.76399 50.5921 3.81741C50.7218 3.87083 50.8397 3.94939 50.939 4.04857C51.0383 4.14774 51.1169 4.26557 51.1705 4.39527C51.224 4.52496 51.2514 4.66397 51.251 4.80429H51.25ZM54.275 5.88629C54.3045 4.49935 53.7868 3.15655 52.834 2.14829C51.8237 1.19869 50.4823 0.681572 49.096 0.707287C47.623 0.623287 43.209 0.623287 41.736 0.707287C40.3501 0.679639 39.0085 1.19542 37.998 2.14429C37.0493 3.15472 36.5342 4.49659 36.563 5.88229C36.479 7.35529 36.479 11.7693 36.563 13.2423C36.5335 14.6292 37.0512 15.972 38.004 16.9803C39.0146 17.9286 40.3553 18.4453 41.741 18.4203C43.214 18.5043 47.628 18.5043 49.101 18.4203C50.4879 18.4498 51.8307 17.9321 52.839 16.9793C53.7865 15.9685 54.3018 14.6275 54.275 13.2423C54.363 11.7693 54.363 7.35929 54.275 5.88629ZM52.375 14.8203C52.2237 15.2053 51.9946 15.5549 51.7021 15.8474C51.4096 16.1399 51.06 16.3689 50.675 16.5203C49.501 16.9863 46.714 16.8783 45.417 16.8783C44.12 16.8783 41.329 16.9783 40.159 16.5203C39.774 16.3689 39.4244 16.1399 39.1319 15.8474C38.8394 15.5549 38.6103 15.2053 38.459 14.8203C37.993 13.6463 38.101 10.8593 38.101 9.56229C38.101 8.26529 38.001 5.47429 38.459 4.30429C38.6103 3.91932 38.8394 3.56968 39.1319 3.27719C39.4244 2.9847 39.774 2.75563 40.159 2.60429C41.333 2.13829 44.12 2.24629 45.417 2.24629C46.714 2.24629 49.505 2.14629 50.675 2.60429C51.06 2.75563 51.4096 2.9847 51.7021 3.27719C51.9946 3.56968 52.2237 3.91932 52.375 4.30429C52.841 5.47829 52.733 8.26529 52.733 9.56229C52.733 10.8593 52.843 13.6523 52.375 14.8203Z" fill="#1D1D1F"/>
<path d="M98.785 5.41344C98.798 5.59444 98.798 5.77544 98.798 5.95644C98.8092 7.52019 98.5094 9.07056 97.9161 10.5174C97.3229 11.9643 96.4479 13.2788 95.3422 14.3846C94.2364 15.4904 92.9219 16.3653 91.475 16.9586C90.0281 17.5519 88.4777 17.8516 86.914 17.8404C84.64 17.8465 82.4127 17.1954 80.5 15.9654C80.835 16.0024 81.1719 16.0198 81.509 16.0174C83.3891 16.0222 85.2161 15.3933 86.695 14.2324C85.8231 14.2163 84.9779 13.9281 84.2778 13.4082C83.5777 12.8882 83.0575 12.1625 82.79 11.3324C83.051 11.3739 83.3147 11.3956 83.579 11.3974C83.9502 11.3965 84.3198 11.3488 84.679 11.2554C83.7331 11.0641 82.8826 10.5512 82.272 9.80374C81.6615 9.05631 81.3286 8.12053 81.33 7.15544V7.10644C81.9088 7.42936 82.5557 7.61096 83.218 7.63644C82.3316 7.04518 81.7042 6.13792 81.4639 5.09982C81.2236 4.06173 81.3885 2.97107 81.925 2.05044C82.9741 3.34175 84.2829 4.39815 85.7665 5.15115C87.2501 5.90415 88.8754 6.33693 90.537 6.42144C90.4711 6.10669 90.4376 5.78602 90.437 5.46444C90.4391 4.62793 90.692 3.81126 91.1631 3.12002C91.6342 2.42878 92.3019 1.89475 93.0797 1.58698C93.8575 1.2792 94.7098 1.21183 95.5263 1.39357C96.3429 1.57531 97.0861 1.99781 97.66 2.60644C98.5954 2.42619 99.4924 2.08478 100.311 1.59744C99.9992 2.56194 99.3464 3.37967 98.475 3.89744C99.3044 3.80287 100.115 3.58479 100.88 3.25044C100.308 4.08316 99.5999 4.81341 98.785 5.41044V5.41344Z" fill="#1D1D1F"/>
</svg>
