<svg width="101" height="21" viewBox="0 0 101 21" fill="none" xmlns="http://www.w3.org/2000/svg">
<path d="M10.2 12.0652L10.766 8.37721H7.227V5.98321C7.20214 5.70738 7.23973 5.42948 7.33698 5.17016C7.43423 4.91085 7.58864 4.67676 7.78875 4.4853C7.98886 4.29383 8.22953 4.1499 8.49289 4.06419C8.75625 3.97848 9.03553 3.9532 9.31 3.99021H10.919V0.850212C9.97302 0.697483 9.01713 0.61426 8.059 0.601212C5.144 0.601212 3.239 2.36821 3.239 5.56521V8.37621H0V12.0642H3.24V20.9812H7.227V12.0652H10.2Z" fill="#1D1D1F"/>
<path d="M44.923 4.99121C44.0183 4.99121 43.134 5.25947 42.3818 5.76207C41.6296 6.26467 41.0434 6.97903 40.6972 7.81482C40.351 8.65061 40.2604 9.57029 40.4369 10.4576C40.6134 11.3448 41.049 12.1598 41.6887 12.7995C42.3284 13.4392 43.1434 13.8748 44.0307 14.0513C44.9179 14.2278 45.8376 14.1372 46.6734 13.791C47.5092 13.4448 48.2235 12.8586 48.7261 12.1064C49.2287 11.3542 49.497 10.4699 49.497 9.56521C49.4981 8.96425 49.3805 8.36899 49.151 7.81357C48.9215 7.25815 48.5846 6.7535 48.1597 6.32855C47.7347 5.90361 47.2301 5.56673 46.6746 5.33724C46.1192 5.10775 45.524 4.99016 44.923 4.99121ZM44.923 12.5382C44.335 12.5382 43.7602 12.3638 43.2713 12.0372C42.7824 11.7105 42.4013 11.2462 42.1763 10.7029C41.9513 10.1597 41.8924 9.56191 42.0071 8.98521C42.1218 8.4085 42.405 7.87877 42.8208 7.46298C43.2366 7.0472 43.7663 6.76405 44.343 6.64934C44.9197 6.53462 45.5175 6.5935 46.0607 6.81852C46.604 7.04354 47.0683 7.42459 47.395 7.9135C47.7216 8.40241 47.896 8.97721 47.896 9.56521C47.8944 10.3532 47.5807 11.1085 47.0235 11.6657C46.4663 12.2229 45.711 12.5366 44.923 12.5382V12.5382ZM50.75 4.80421C50.75 5.01525 50.6874 5.22154 50.5702 5.39701C50.4529 5.57247 50.2863 5.70923 50.0913 5.78999C49.8964 5.87075 49.6818 5.89188 49.4748 5.85071C49.2679 5.80954 49.0777 5.70792 48.9285 5.5587C48.7793 5.40947 48.6777 5.21935 48.6365 5.01237C48.5953 4.8054 48.6165 4.59086 48.6972 4.39589C48.778 4.20092 48.9147 4.03428 49.0902 3.91703C49.2657 3.79979 49.472 3.73721 49.683 3.73721C49.8233 3.73668 49.9623 3.76391 50.0921 3.81734C50.2218 3.87076 50.3397 3.94932 50.439 4.04849C50.5383 4.14766 50.6169 4.26549 50.6705 4.39519C50.724 4.52489 50.7514 4.6639 50.751 4.80421H50.75ZM53.775 5.88621C53.8045 4.49928 53.2868 3.15647 52.334 2.14821C51.3237 1.19862 49.9823 0.681496 48.596 0.707211C47.123 0.623211 42.709 0.623211 41.236 0.707211C39.8501 0.679563 38.5085 1.19534 37.498 2.14421C36.5493 3.15465 36.0342 4.49651 36.063 5.88221C35.979 7.35521 35.979 11.7692 36.063 13.2422C36.0335 14.6291 36.5512 15.9719 37.504 16.9802C38.5146 17.9286 39.8553 18.4452 41.241 18.4202C42.714 18.5042 47.128 18.5042 48.601 18.4202C49.9879 18.4497 51.3307 17.932 52.339 16.9792C53.2865 15.9684 53.8018 14.6274 53.775 13.2422C53.863 11.7692 53.863 7.35921 53.775 5.88621ZM51.875 14.8202C51.7237 15.2052 51.4946 15.5548 51.2021 15.8473C50.9096 16.1398 50.56 16.3689 50.175 16.5202C49.001 16.9862 46.214 16.8782 44.917 16.8782C43.62 16.8782 40.829 16.9782 39.659 16.5202C39.274 16.3689 38.9244 16.1398 38.6319 15.8473C38.3394 15.5548 38.1103 15.2052 37.959 14.8202C37.493 13.6462 37.601 10.8592 37.601 9.56221C37.601 8.26521 37.501 5.47421 37.959 4.30421C38.1103 3.91925 38.3394 3.56961 38.6319 3.27711C38.9244 2.98462 39.274 2.75556 39.659 2.60421C40.833 2.13821 43.62 2.24621 44.917 2.24621C46.214 2.24621 49.005 2.14621 50.175 2.60421C50.56 2.75556 50.9096 2.98462 51.2021 3.27711C51.4946 3.56961 51.7237 3.91925 51.875 4.30421C52.341 5.47821 52.233 8.26521 52.233 9.56221C52.233 10.8592 52.343 13.6522 51.875 14.8202Z" fill="#1D1D1F"/>
<path d="M98.285 5.41321C98.298 5.59421 98.298 5.77521 98.298 5.95621C98.3092 7.51996 98.0094 9.07033 97.4161 10.5172C96.8229 11.9641 95.9479 13.2786 94.8422 14.3844C93.7364 15.4901 92.4219 16.3651 90.975 16.9584C89.5281 17.5516 87.9777 17.8514 86.414 17.8402C84.14 17.8463 81.9127 17.1952 80 15.9652C80.335 16.0022 80.6719 16.0196 81.009 16.0172C82.8891 16.0219 84.7161 15.3931 86.195 14.2322C85.3231 14.2161 84.4779 13.9279 83.7778 13.408C83.0777 12.888 82.5575 12.1623 82.29 11.3322C82.551 11.3736 82.8147 11.3954 83.079 11.3972C83.4502 11.3963 83.8198 11.3486 84.179 11.2552C83.2331 11.0639 82.3826 10.5509 81.772 9.80351C81.1615 9.05608 80.8286 8.1203 80.83 7.15521V7.10621C81.4088 7.42913 82.0557 7.61073 82.718 7.63621C81.8316 7.04495 81.2042 6.13769 80.9639 5.09959C80.7236 4.0615 80.8885 2.97084 81.425 2.05021C82.4741 3.34152 83.7829 4.39792 85.2665 5.15092C86.7501 5.90392 88.3754 6.3367 90.037 6.42121C89.9711 6.10646 89.9376 5.78579 89.937 5.46421C89.9391 4.6277 90.192 3.81103 90.6631 3.11979C91.1342 2.42855 91.8019 1.89452 92.5797 1.58675C93.3575 1.27897 94.2098 1.2116 95.0263 1.39334C95.8429 1.57508 96.5861 1.99758 97.16 2.60621C98.0954 2.42596 98.9924 2.08455 99.811 1.59721C99.4992 2.56171 98.8464 3.37944 97.975 3.89721C98.8044 3.80265 99.6151 3.58456 100.38 3.25021C99.8081 4.08293 99.0999 4.81318 98.285 5.41021V5.41321Z" fill="#1D1D1F"/>
</svg>
