<svg width="100" height="16" viewBox="0 0 100 16" fill="none" xmlns="http://www.w3.org/2000/svg">
<path d="M6.799 1.21598L4.94 4.98698L0.779999 5.59398C0.612163 5.61936 0.454743 5.69109 0.325452 5.80108C0.196162 5.91106 0.100134 6.05495 0.0481736 6.21655C-0.00378683 6.37815 -0.00961696 6.55104 0.0313392 6.71577C0.0722953 6.8805 0.158412 7.03053 0.279999 7.14898L3.29 10.082L2.578 14.225C2.54945 14.3924 2.56827 14.5644 2.63231 14.7217C2.69636 14.879 2.8031 15.0152 2.94048 15.1151C3.07785 15.2149 3.2404 15.2744 3.40977 15.2867C3.57914 15.2991 3.74859 15.2638 3.899 15.185L7.621 13.229L11.343 15.185C11.4934 15.2638 11.6629 15.2991 11.8322 15.2867C12.0016 15.2744 12.1641 15.2149 12.3015 15.1151C12.4389 15.0152 12.5456 14.879 12.6097 14.7217C12.6737 14.5644 12.6925 14.3924 12.664 14.225L11.948 10.081L14.958 7.14798C15.0796 7.02953 15.1657 6.8795 15.2067 6.71477C15.2476 6.55004 15.2418 6.37715 15.1898 6.21555C15.1379 6.05395 15.0418 5.91006 14.9125 5.80008C14.7833 5.69009 14.6258 5.61836 14.458 5.59298L10.298 4.98598L8.434 1.21598C8.35862 1.06355 8.24212 0.93523 8.09767 0.845513C7.95321 0.755795 7.78655 0.708252 7.6165 0.708252C7.44645 0.708252 7.27979 0.755795 7.13533 0.845513C6.99087 0.93523 6.87438 1.06355 6.799 1.21598Z" fill="#06C167"/>
<path d="M27.799 1.21598L25.94 4.98698L21.78 5.59398C21.6122 5.61936 21.4547 5.69109 21.3255 5.80108C21.1962 5.91106 21.1001 6.05495 21.0482 6.21655C20.9962 6.37815 20.9904 6.55104 21.0313 6.71577C21.0723 6.8805 21.1584 7.03053 21.28 7.14898L24.29 10.082L23.578 14.225C23.5495 14.3924 23.5683 14.5644 23.6323 14.7217C23.6964 14.879 23.8031 15.0152 23.9405 15.1151C24.0779 15.2149 24.2404 15.2744 24.4098 15.2867C24.5791 15.2991 24.7486 15.2638 24.899 15.185L28.621 13.229L32.343 15.185C32.4934 15.2638 32.6629 15.2991 32.8322 15.2867C33.0016 15.2744 33.1641 15.2149 33.3015 15.1151C33.4389 15.0152 33.5456 14.879 33.6097 14.7217C33.6737 14.5644 33.6925 14.3924 33.664 14.225L32.948 10.081L35.958 7.14798C36.0796 7.02953 36.1657 6.8795 36.2067 6.71477C36.2476 6.55004 36.2418 6.37715 36.1898 6.21555C36.1379 6.05395 36.0418 5.91006 35.9125 5.80008C35.7833 5.69009 35.6258 5.61836 35.458 5.59298L31.298 4.98598L29.434 1.21598C29.3586 1.06355 29.2421 0.93523 29.0977 0.845513C28.9532 0.755795 28.7865 0.708252 28.6165 0.708252C28.4464 0.708252 28.2798 0.755795 28.1353 0.845513C27.9909 0.93523 27.8744 1.06355 27.799 1.21598Z" fill="#06C167"/>
<path d="M48.799 1.21598L46.94 4.98698L42.78 5.59398C42.6122 5.61936 42.4547 5.69109 42.3255 5.80108C42.1962 5.91106 42.1001 6.05495 42.0482 6.21655C41.9962 6.37815 41.9904 6.55104 42.0313 6.71577C42.0723 6.8805 42.1584 7.03053 42.28 7.14898L45.29 10.082L44.578 14.225C44.5495 14.3924 44.5683 14.5644 44.6323 14.7217C44.6964 14.879 44.8031 15.0152 44.9405 15.1151C45.0779 15.2149 45.2404 15.2744 45.4098 15.2867C45.5791 15.2991 45.7486 15.2638 45.899 15.185L49.621 13.229L53.343 15.185C53.4934 15.2638 53.6629 15.2991 53.8322 15.2867C54.0016 15.2744 54.1641 15.2149 54.3015 15.1151C54.4389 15.0152 54.5456 14.879 54.6097 14.7217C54.6737 14.5644 54.6925 14.3924 54.664 14.225L53.948 10.081L56.958 7.14798C57.0796 7.02953 57.1657 6.8795 57.2067 6.71477C57.2476 6.55004 57.2418 6.37715 57.1898 6.21555C57.1379 6.05395 57.0418 5.91006 56.9125 5.80008C56.7833 5.69009 56.6258 5.61836 56.458 5.59298L52.298 4.98598L50.434 1.21598C50.3586 1.06355 50.2421 0.93523 50.0977 0.845513C49.9532 0.755795 49.7865 0.708252 49.6165 0.708252C49.4464 0.708252 49.2798 0.755795 49.1353 0.845513C48.9909 0.93523 48.8744 1.06355 48.799 1.21598Z" fill="#06C167"/>
<path d="M69.799 1.21598L67.94 4.98698L63.78 5.59398C63.6122 5.61936 63.4547 5.69109 63.3255 5.80108C63.1962 5.91106 63.1001 6.05495 63.0482 6.21655C62.9962 6.37815 62.9904 6.55104 63.0313 6.71577C63.0723 6.8805 63.1584 7.03053 63.28 7.14898L66.29 10.082L65.578 14.225C65.5495 14.3924 65.5683 14.5644 65.6323 14.7217C65.6964 14.879 65.8031 15.0152 65.9405 15.1151C66.0779 15.2149 66.2404 15.2744 66.4098 15.2867C66.5791 15.2991 66.7486 15.2638 66.899 15.185L70.621 13.229L74.343 15.185C74.4934 15.2638 74.6629 15.2991 74.8322 15.2867C75.0016 15.2744 75.1641 15.2149 75.3015 15.1151C75.4389 15.0152 75.5456 14.879 75.6097 14.7217C75.6737 14.5644 75.6925 14.3924 75.664 14.225L74.948 10.081L77.958 7.14798C78.0796 7.02953 78.1657 6.8795 78.2067 6.71477C78.2476 6.55004 78.2418 6.37715 78.1898 6.21555C78.1379 6.05395 78.0418 5.91006 77.9125 5.80008C77.7833 5.69009 77.6258 5.61836 77.458 5.59298L73.298 4.98598L71.434 1.21598C71.3586 1.06355 71.2421 0.93523 71.0977 0.845513C70.9532 0.755795 70.7865 0.708252 70.6165 0.708252C70.4464 0.708252 70.2798 0.755795 70.1353 0.845513C69.9909 0.93523 69.8744 1.06355 69.799 1.21598Z" fill="#06C167"/>
<path d="M90.799 1.21598L88.94 4.98698L84.78 5.59398C84.6122 5.61936 84.4547 5.69109 84.3255 5.80108C84.1962 5.91106 84.1001 6.05495 84.0482 6.21655C83.9962 6.37815 83.9904 6.55104 84.0313 6.71577C84.0723 6.8805 84.1584 7.03053 84.28 7.14898L87.29 10.082L86.578 14.225C86.5495 14.3924 86.5683 14.5644 86.6323 14.7217C86.6964 14.879 86.8031 15.0152 86.9405 15.1151C87.0779 15.2149 87.2404 15.2744 87.4098 15.2867C87.5791 15.2991 87.7486 15.2638 87.899 15.185L91.621 13.229L95.343 15.185C95.4934 15.2638 95.6629 15.2991 95.8322 15.2867C96.0016 15.2744 96.1641 15.2149 96.3015 15.1151C96.4389 15.0152 96.5456 14.879 96.6097 14.7217C96.6737 14.5644 96.6925 14.3924 96.664 14.225L95.948 10.081L98.958 7.14798C99.0796 7.02953 99.1657 6.8795 99.2067 6.71477C99.2476 6.55004 99.2418 6.37715 99.1898 6.21555C99.1379 6.05395 99.0418 5.91006 98.9125 5.80008C98.7833 5.69009 98.6258 5.61836 98.458 5.59298L94.298 4.98598L92.434 1.21598C92.3586 1.06355 92.2421 0.93523 92.0977 0.845513C91.9532 0.755795 91.7865 0.708252 91.6165 0.708252C91.4464 0.708252 91.2798 0.755795 91.1353 0.845513C90.9909 0.93523 90.8744 1.06355 90.799 1.21598Z" fill="#06C167"/>
</svg>
