<svg width="23" height="11" viewBox="0 0 23 11" fill="none" xmlns="http://www.w3.org/2000/svg">
<path d="M16.243 3.50292H1.15902C0.999891 3.50292 0.847279 3.56614 0.734757 3.67866C0.622235 3.79118 0.559021 3.9438 0.559021 4.10293L0.559021 6.90292C0.559021 6.98172 0.57454 7.05974 0.604693 7.13253C0.634846 7.20533 0.679042 7.27147 0.734757 7.32719C0.790472 7.3829 0.856616 7.4271 0.929411 7.45725C1.00221 7.48741 1.08023 7.50292 1.15902 7.50292H16.243V9.80293C16.2434 10.0399 16.314 10.2715 16.4458 10.4684C16.5776 10.6653 16.7648 10.8188 16.9838 10.9095C17.2027 11.0002 17.4436 11.024 17.676 10.978C17.9085 10.932 18.1222 10.8182 18.29 10.6509L22.59 6.35092C22.7019 6.23944 22.7907 6.10697 22.8512 5.96111C22.9118 5.81525 22.943 5.65886 22.943 5.50093C22.943 5.34299 22.9118 5.1866 22.8512 5.04074C22.7907 4.89488 22.7019 4.76241 22.59 4.65093L18.29 0.350925C18.1222 0.183657 17.9085 0.0698383 17.676 0.0238199C17.4436 -0.0221985 17.2027 0.00164382 16.9838 0.0923414C16.7648 0.183039 16.5776 0.33653 16.4458 0.533462C16.314 0.730393 16.2434 0.961946 16.243 1.19893V3.50292Z" fill="white"/>
</svg>
